#!OML:ASF G:\JayActor3\Patient Classification 1\Patient 1\Session 5\male.ASF
:FULLY-SPECIFIED
:DEGREES
526
root 46.3898 16.1793 -4.49481 1280.29 80.4105 1281.74
lowerback 0.93058 -0.367911 3.02046
upperback 2.83003 -0.471084 0.129678
thorax 2.36031 -0.153701 -1.56356
lowerneck -10.4124 -1.97745 0.807312
upperneck 5.95459 -3.07309 4.0565
head 3.87663 -1.28877 1.00873
rclavicle 5.41688e-015 2.78299e-015
rhumerus -24.362 4.27282 -87.8317
rradius 39.85
rwrist -4.03043
rhand -20.4182 -5.19609
rfingers 7.12502
rthumb 5.93605 -35.0929
lclavicle 5.41688e-015 2.78299e-015
lhumerus -36.1493 17.742 78.1047
lradius 22.1819
lwrist 7.28533
lhand -16.0879 12.1376
lfingers 7.12502
lthumb 10.1153 41.8745
rfemur -16.0523 1.54422 28.0316
rtibia 39.0445
rfoot -22.4331 -16.1072
rtoes 8.75817
lfemur -17.0491 -4.19491 -14.4162
ltibia 33.6547
lfoot -17.059 -5.18313
ltoes -18.1835
527
root 46.4443 16.1757 -4.5038 1280.93 80.3463 1282.35
lowerback 0.892898 -0.368812 3.09778
upperback 2.80391 -0.474746 0.16535
thorax 2.35429 -0.154838 -1.57043
lowerneck -10.3498 -1.97299 0.827449
upperneck 6.01754 -3.06879 4.02428
head 3.88527 -1.28743 0.995136
rclavicle -3.08116e-015 -4.77083e-015
rhumerus -24.3495 4.47525 -87.9249
rradius 40.1267
rwrist -4.13086
rhand -20.4205 -5.16897
rfingers 7.12502
rthumb 5.93383 -35.0659
lclavicle -3.08116e-015 -4.77083e-015
lhumerus -36.0106 17.8352 78.0798
lradius 22.0461
lwrist 7.13086
lhand -16.1197 12.1531
lfingers 7.12502
lthumb 10.0847 41.8914
rfemur -15.8469 1.47229 28.1613
rtibia 39.0019
rfoot -22.6222 -16.0043
rtoes 8.81745
lfemur -17.0438 -4.25543 -14.2806
ltibia 33.3015
lfoot -16.4995 -5.48691
ltoes -17.1463
528
root 46.4972 16.172 -4.51296 1281.55 80.2995 1282.95
lowerback 0.868569 -0.364955 3.16113
upperback 2.77934 -0.471404 0.198475
thorax 2.34276 -0.152792 -1.57193
lowerneck -10.2733 -1.96939 0.853564
upperneck 6.06705 -3.06591 3.99825
head 3.88644 -1.28668 0.982522
rclavicle 2.36057e-015 -1.59028e-015
rhumerus -24.3482 4.66955 -88.0218
rradius 40.3639
rwrist -4.21211
rhand -20.4192 -5.14399
rfingers 7.12502
rthumb 5.93506 -35.0409
lclavicle 2.36057e-015 -1.59028e-015
lhumerus -35.8603 17.9124 78.0674
lradius 21.9247
lwrist 6.99543
lhand -16.1403 12.1684
lfingers 7.12502
lthumb 10.0648 41.9078
rfemur -15.6407 1.41532 28.2845
rtibia 38.9673
rfoot -22.8032 -15.9089
rtoes 8.86669
lfemur -17.0001 -4.26529 -14.1611
ltibia 33.027
lfoot -15.873 -5.72217
ltoes -15.8488
529
root 46.5489 16.1684 -4.5224 1282.08 80.2792 1283.49
lowerback 0.851124 -0.355293 3.19727
upperback 2.76391 -0.459779 0.223823
thorax 2.33727 -0.146853 -1.56606
lowerneck -10.1881 -1.96667 0.883719
upperneck 6.10031 -3.0644 3.98087
head 3.88024 -1.28641 0.97203
rclavicle 2.03754e-015 8.74653e-015
rhumerus -24.3442 4.84835 -88.122
rradius 40.5497
rwrist -4.26443
rhand -20.4189 -5.1153
rfingers 7.12502
rthumb 5.93543 -35.0122
lclavicle 2.03754e-015 8.74653e-015
lhumerus -35.693 17.9686 78.0719
lradius 21.8235
lwrist 6.89004
lhand -16.1546 12.1946
lfingers 7.12502
lthumb 10.051 41.9346
rfemur -15.4248 1.38073 28.3854
rtibia 38.9416
rfoot -22.981 -15.824
rtoes 8.89531
lfemur -16.8967 -4.25049 -14.0727
ltibia 32.8216
lfoot -15.2526 -5.87614
ltoes -14.3681
530
root 46.5995 16.1647 -4.53235 1282.52 80.2822 1283.94
lowerback 0.840212 -0.340265 3.21045
upperback 2.76005 -0.440486 0.241139
thorax 2.34048 -0.137135 -1.5555
lowerneck -10.1055 -1.96441 0.907811
upperneck 6.12719 -3.06369 3.98072
head 3.87286 -1.28585 0.968332
rclavicle 2.33075e-014 4.77083e-015
rhumerus -24.3323 5.00584 -88.223
rradius 40.6784
rwrist -4.28368
rhand -20.4189 -5.06786
rfingers 7.12502
rthumb 5.93538 -34.9647
lclavicle 2.33075e-014 4.77083e-015
lhumerus -35.5065 17.9968 78.0994
lradius 21.7476
lwrist 6.82428
lhand -16.1644 12.2305
lfingers 7.12502
lthumb 10.0416 41.971
rfemur -15.1954 1.36321 28.4624
rtibia 38.9235
rfoot -23.1601 -15.7465
rtoes 8.91269
lfemur -16.7222 -4.23549 -14.0139
ltibia 32.6718
lfoot -14.7341 -5.96991
ltoes -12.8537
531
root 46.6491 16.1611 -4.54284 1282.86 80.3067 1284.32
lowerback 0.833194 -0.32153 3.20173
upperback 2.76421 -0.415868 0.250082
thorax 2.35005 -0.124899 -1.54119
lowerneck -10.0298 -1.96144 0.928441
upperneck 6.15713 -3.06282 3.99414
head 3.86833 -1.28442 0.969792
rclavicle -1.34428e-014 -4.77083e-015
rhumerus -24.3088 5.14189 -88.3251
rradius 40.7387
rwrist -4.26466
rhand -20.4175 -5.02535
rfingers 7.12502
rthumb 5.93678 -34.9222
lclavicle -1.34428e-014 -4.77083e-015
lhumerus -35.3062 18.0001 78.145
lradius 21.6975
lwrist 6.79495
lhand -16.167 12.2771
lfingers 7.12502
lthumb 10.039 42.0176
rfemur -14.9534 1.3671 28.5159
rtibia 38.9085
rfoot -23.3422 -15.6766
rtoes 8.92119
lfemur -16.4775 -4.23422 -13.9823
ltibia 32.555
lfoot -14.3721 -6.02299
ltoes -11.4867
532
root 46.698 16.1578 -4.55401 1283.13 80.3465 1284.64
lowerback 0.827494 -0.299826 3.17817
upperback 2.77527 -0.38707 0.252402
thorax 2.36621 -0.110606 -1.52533
lowerneck -9.9533 -1.96062 0.942956
upperneck 6.18687 -3.06472 4.01814
head 3.86403 -1.28398 0.975719
rclavicle -2.41523e-014 -6.36111e-015
rhumerus -24.277 5.24958 -88.4276
rradius 40.7264
rwrist -4.20424
rhand -20.4126 -4.99376
rfingers 7.12502
rthumb 5.94152 -34.8905
lclavicle -2.41523e-014 -6.36111e-015
lhumerus -35.0986 17.9674 78.2136
lradius 21.6768
lwrist 6.80592
lhand -16.1732 12.3326
lfingers 7.12502
lthumb 10.0331 42.0735
rfemur -14.6927 1.38648 28.5498
rtibia 38.8883
rfoot -23.5279 -15.6086
rtoes 8.94286
lfemur -16.1616 -4.24606 -13.9731
ltibia 32.4422
lfoot -14.1938 -6.0419
ltoes -10.4199
533
root 46.7463 16.1551 -4.56603 1283.37 80.3931 1284.93
lowerback 0.820444 -0.27901 3.15171
upperback 2.78852 -0.35944 0.250651
thorax 2.38528 -0.096846 -1.51204
lowerneck -9.87225 -1.96212 0.953347
upperneck 6.22379 -3.06972 4.04696
head 3.86163 -1.28483 0.983848
rclavicle 8.15017e-015 -5.96354e-015
rhumerus -24.2398 5.33346 -88.532
rradius 40.6368
rwrist -4.09826
rhand -20.4025 -4.96735
rfingers 7.12502
rthumb 5.9512 -34.8638
lclavicle 8.15017e-015 -5.96354e-015
lhumerus -34.8889 17.9059 78.2991
lradius 21.6778
lwrist 6.84593
lhand -16.1833 12.4008
lfingers 7.12502
lthumb 10.0233 42.1421
rfemur -14.4118 1.4099 28.572
rtibia 38.8519
rfoot -23.7112 -15.5333
rtoes 8.98292
lfemur -15.7892 -4.26329 -13.9773
ltibia 32.3006
lfoot -14.1653 -6.03469
ltoes -9.64553
534
root 46.7947 16.1533 -4.5788 1283.61 80.4428 1285.23
lowerback 0.808581 -0.26036 3.12598
upperback 2.8009 -0.334869 0.245938
thorax 2.40598 -0.0845817 -1.50225
lowerneck -9.78865 -1.96146 0.960014
upperneck 6.27835 -3.07263 4.08456
head 3.86525 -1.28395 0.995798
rclavicle 1.18525e-014 -8.34896e-015
rhumerus -24.2007 5.38753 -88.6411
rradius 40.4666
rwrist -3.94342
rhand -20.3872 -4.95024
rfingers 7.12502
rthumb 5.96597 -34.8462
lclavicle 1.18525e-014 -8.34896e-015
lhumerus -34.683 17.8166 78.3944
lradius 21.6965
lwrist 6.90534
lhand -16.1916 12.476
lfingers 7.12502
lthumb 10.0153 42.2177
rfemur -14.1061 1.43531 28.5887
rtibia 38.7879
rfoot -23.8863 -15.4509
rtoes 9.04192
lfemur -15.3703 -4.26437 -13.9893
ltibia 32.1037
lfoot -14.2223 -6.00146
ltoes -9.08358
535
root 46.8436 16.1532 -4.59239 1283.84 80.492 1285.53
lowerback 0.784537 -0.246347 3.10223
upperback 2.81302 -0.316969 0.238365
thorax 2.43291 -0.0755234 -1.49663
lowerneck -9.69388 -1.95882 0.970216
upperneck 6.34574 -3.0733 4.11882
head 3.87102 -1.28189 1.00625
rclavicle 2.33572e-015 -1.19271e-015
rhumerus -24.1597 5.41821 -88.7557
rradius 40.2117
rwrist -3.74328
rhand -20.3712 -4.92613
rfingers 7.12502
rthumb 5.98147 -34.8217
lclavicle 2.33572e-015 -1.19271e-015
lhumerus -34.4826 17.7075 78.4945
lradius 21.7272
lwrist 6.9713
lhand -16.2001 12.5634
lfingers 7.12502
lthumb 10.0071 42.3055
rfemur -13.7671 1.4483 28.598
rtibia 38.6878
rfoot -24.0452 -15.3563
rtoes 9.10763
lfemur -14.9093 -4.22891 -14.0119
ltibia 31.8366
lfoot -14.2937 -5.93203
ltoes -8.63061
536
root 46.8931 16.1548 -4.60673 1284.05 80.5372 1285.82
lowerback 0.744496 -0.237404 3.08195
upperback 2.82581 -0.306482 0.228632
thorax 2.46914 -0.069957 -1.49532
lowerneck -9.59907 -1.95483 0.981597
upperneck 6.43493 -3.07298 4.15067
head 3.88442 -1.27897 1.01582
rclavicle 1.5381e-014 -1.51076e-014
rhumerus -24.1123 5.41212 -88.872
rradius 39.8752
rwrist -3.48841
rhand -20.3361 -4.9105
rfingers 7.12502
rthumb 6.0153 -34.8051
lclavicle 1.5381e-014 -1.51076e-014
lhumerus -34.2836 17.5788 78.601
lradius 21.7687
lwrist 7.04183
lhand -16.2092 12.6502
lfingers 7.12502
lthumb 9.99833 42.3927
rfemur -13.399 1.43883 28.6001
rtibia 38.5494
rfoot -24.184 -15.2453
rtoes 9.17474
lfemur -14.4155 -4.14262 -14.0444
ltibia 31.5
lfoot -14.3286 -5.83329
ltoes -8.21001
537
root 46.9433 16.1581 -4.62165 1284.23 80.5815 1286.07
lowerback 0.682252 -0.233002 3.05736
upperback 2.83805 -0.302889 0.215716
thorax 2.51698 -0.0678001 -1.49505
lowerneck -9.5079 -1.94886 0.99845
upperneck 6.54751 -3.07102 4.17351
head 3.90652 -1.27496 1.02156
rclavicle 2.17918e-014 -1.39149e-014
rhumerus -24.0588 5.37021 -88.9885
rradius 39.4609
rwrist -3.18621
rhand -20.2926 -4.8864
rfingers 7.12502
rthumb 6.05736 -34.7798
lclavicle 2.17918e-014 -1.39149e-014
lhumerus -34.0822 17.4381 78.7108
lradius 21.8135
lwrist 7.1109
lhand -16.2248 12.732
lfingers 7.12502
lthumb 9.98333 42.4753
rfemur -13.0105 1.40963 28.5899
rtibia 38.3767
rfoot -24.3019 -15.1223
rtoes 9.2265
lfemur -13.8972 -4.01091 -14.0916
ltibia 31.1083
lfoot -14.3173 -5.71616
ltoes -7.73472
538
root 46.9939 16.1629 -4.63705 1284.35 80.6283 1286.26
lowerback 0.592708 -0.229122 3.02664
upperback 2.85039 -0.300953 0.197637
thorax 2.5802 -0.0664061 -1.49678
lowerneck -9.43035 -1.9434 1.01114
upperneck 6.6888 -3.07053 4.19429
head 3.94163 -1.27109 1.02727
rclavicle -5.93869e-015 -7.15625e-015
rhumerus -23.9965 5.27478 -89.0999
rradius 38.9728
rwrist -2.82998
rhand -20.238 -4.85491
rfingers 7.12502
rthumb 6.11008 -34.7468
lclavicle -5.93869e-015 -7.15625e-015
lhumerus -33.8697 17.2765 78.8304
lradius 21.8581
lwrist 7.183
lhand -16.2503 12.7992
lfingers 7.12502
lthumb 9.9587 42.5436
rfemur -12.6139 1.36511 28.5629
rtibia 38.1793
rfoot -24.3983 -14.9966
rtoes 9.24836
lfemur -13.3659 -3.85951 -14.1576
ltibia 30.682
lfoot -14.2631 -5.60039
ltoes -7.14151
539
root 47.0447 16.1688 -4.6528 1284.41 80.6778 1286.38
lowerback 0.474403 -0.223765 2.98837
upperback 2.86171 -0.29798 0.174233
thorax 2.65863 -0.0644966 -1.49987
lowerneck -9.37689 -1.94081 1.02239
upperneck 6.863 -3.0751 4.20792
head 3.99329 -1.26906 1.03049
rclavicle -2.52953e-014 9.54166e-015
rhumerus -23.9308 5.12307 -89.2027
rradius 38.4273
rwrist -2.43326
rhand -20.1698 -4.82994
rfingers 7.12502
rthumb 6.17585 -34.7199
lclavicle -2.52953e-014 9.54166e-015
lhumerus -33.6405 17.0984 78.9591
lradius 21.8986
lwrist 7.2529
lhand -16.276 12.8575
lfingers 7.12502
lthumb 9.93389 42.6031
rfemur -12.2232 1.31589 28.5194
rtibia 37.9678
rfoot -24.4795 -14.8777
rtoes 9.23904
lfemur -12.8331 -3.72943 -14.2432
ltibia 30.2413
lfoot -14.1746 -5.47698
ltoes -6.53117
